<svg xmlns="http://www.w3.org/2000/svg" xmlns:xlink="http://www.w3.org/1999/xlink" width="20" height="20" viewBox="0 0 20 20"><defs><style>.a{fill:#fff;stroke:#707070;}.b{clip-path:url(#a);}.c{fill:none;}.d{fill:#020f59;}</style><clipPath id="a"><rect class="a" width="20" height="20" transform="translate(1272 847)"/></clipPath></defs><g class="b" transform="translate(-1272 -847)"><g transform="translate(1272 847)"><path class="c" d="M0,0H20V20H0Z"/><path class="d" d="M11.25,19.583a1.672,1.672,0,0,0,1.667,1.667h6.667a1.672,1.672,0,0,0,1.667-1.667v-10h-10ZM13.3,13.65l1.175-1.175,1.775,1.767,1.767-1.767,1.175,1.175-1.767,1.767,1.767,1.767-1.175,1.175L16.25,16.592l-1.767,1.767-1.175-1.175,1.767-1.767Zm5.867-6.567-.833-.833H14.167l-.833.833H10.417V8.75H22.083V7.083Z" transform="translate(-6.25 -3.75)"/><path class="c" d="M0,0H20V20H0Z"/></g></g></svg>